<mxfile host="app.diagrams.net" modified="2021-12-17T04:30:05.539Z" agent="5.0 (Windows)" etag="IvoZlJFGA0JchchVlCQl" version="15.9.6" type="github">
  <diagram id="qBN-_Dr7UHZ4-JxlXA_n" name="Page-1">
    <mxGraphModel dx="782" dy="392" grid="1" gridSize="10" guides="1" tooltips="1" connect="1" arrows="1" fold="1" page="1" pageScale="1" pageWidth="850" pageHeight="1100" math="0" shadow="0">
      <root>
        <mxCell id="0" />
        <mxCell id="1" parent="0" />
        <mxCell id="ICuspe2-xYvKXoBvfxyv-2" value="" style="ellipse;whiteSpace=wrap;html=1;aspect=fixed;" vertex="1" parent="1">
          <mxGeometry x="280" y="80" width="220" height="220" as="geometry" />
        </mxCell>
        <mxCell id="ICuspe2-xYvKXoBvfxyv-4" value="" style="verticalLabelPosition=bottom;verticalAlign=top;html=1;shape=mxgraph.basic.pie;startAngle=0.8286132104611288;endAngle=0;" vertex="1" parent="1">
          <mxGeometry x="280" y="80" width="220" height="220" as="geometry" />
        </mxCell>
        <mxCell id="ICuspe2-xYvKXoBvfxyv-6" value="&lt;font style=&quot;font-size: 48px&quot;&gt;00:00&lt;/font&gt;" style="text;strokeColor=none;fillColor=none;html=1;fontSize=24;fontStyle=1;verticalAlign=middle;align=center;" vertex="1" parent="1">
          <mxGeometry x="295" y="160" width="190" height="60" as="geometry" />
        </mxCell>
        <mxCell id="ICuspe2-xYvKXoBvfxyv-8" value="&lt;div style=&quot;font-size: 23px&quot;&gt;&lt;font style=&quot;font-size: 23px&quot;&gt;START&lt;/font&gt;&lt;/div&gt;" style="rounded=1;whiteSpace=wrap;html=1;fontSize=30;verticalAlign=middle;align=center;labelPosition=center;verticalLabelPosition=middle;horizontal=1;" vertex="1" parent="1">
          <mxGeometry x="326" y="390" width="150" height="60" as="geometry" />
        </mxCell>
        <mxCell id="ICuspe2-xYvKXoBvfxyv-18" value="15mins" style="strokeWidth=1;shadow=0;dashed=0;align=center;html=1;shape=mxgraph.mockup.forms.comboBox;strokeColor=#999999;fillColor=#ddeeff;align=left;fillColor2=#aaddff;mainText=;fontColor=#666666;fontSize=17;spacingLeft=3;" vertex="1" parent="1">
          <mxGeometry x="325" y="340" width="150" height="30" as="geometry" />
        </mxCell>
        <mxCell id="ICuspe2-xYvKXoBvfxyv-21" value="&lt;font style=&quot;font-size: 23px&quot;&gt;PAUSE&lt;/font&gt;" style="rounded=1;whiteSpace=wrap;html=1;fontSize=30;verticalAlign=middle;align=center;labelPosition=center;verticalLabelPosition=middle;horizontal=1;" vertex="1" parent="1">
          <mxGeometry x="326" y="470" width="150" height="60" as="geometry" />
        </mxCell>
        <mxCell id="ICuspe2-xYvKXoBvfxyv-22" value="&lt;font style=&quot;font-size: 46px&quot;&gt;Study Timer&lt;/font&gt;" style="text;html=1;strokeColor=none;fillColor=none;align=center;verticalAlign=middle;whiteSpace=wrap;rounded=0;fontSize=30;" vertex="1" parent="1">
          <mxGeometry x="245" y="10" width="290" height="50" as="geometry" />
        </mxCell>
        <mxCell id="ICuspe2-xYvKXoBvfxyv-25" value="" style="endArrow=classic;html=1;rounded=0;fontSize=23;" edge="1" parent="1">
          <mxGeometry width="50" height="50" relative="1" as="geometry">
            <mxPoint x="180" y="190" as="sourcePoint" />
            <mxPoint x="320" y="140" as="targetPoint" />
          </mxGeometry>
        </mxCell>
        <mxCell id="ICuspe2-xYvKXoBvfxyv-26" value="Animated, goes a full circle when timer goes to 0." style="text;html=1;strokeColor=none;fillColor=none;align=right;verticalAlign=middle;whiteSpace=wrap;rounded=0;fontSize=16;" vertex="1" parent="1">
          <mxGeometry x="40" y="170" width="140" height="60" as="geometry" />
        </mxCell>
        <mxCell id="ICuspe2-xYvKXoBvfxyv-27" value="" style="endArrow=classic;html=1;rounded=0;fontSize=16;" edge="1" parent="1" target="ICuspe2-xYvKXoBvfxyv-6">
          <mxGeometry width="50" height="50" relative="1" as="geometry">
            <mxPoint x="580" y="270" as="sourcePoint" />
            <mxPoint x="570" y="180" as="targetPoint" />
          </mxGeometry>
        </mxCell>
        <mxCell id="ICuspe2-xYvKXoBvfxyv-29" value="Countdown Timer" style="text;html=1;strokeColor=none;fillColor=none;align=left;verticalAlign=middle;whiteSpace=wrap;rounded=0;fontSize=16;" vertex="1" parent="1">
          <mxGeometry x="580" y="260" width="110" height="50" as="geometry" />
        </mxCell>
        <mxCell id="ICuspe2-xYvKXoBvfxyv-30" value="&lt;div style=&quot;font-size: 20px&quot;&gt;Start Time: 11:45 pm&lt;br style=&quot;font-size: 20px&quot;&gt;&lt;/div&gt;&lt;div style=&quot;font-size: 20px&quot;&gt;Stop Time: 12:00 pm&lt;br style=&quot;font-size: 20px&quot;&gt;&lt;/div&gt;" style="text;html=1;strokeColor=none;fillColor=none;align=center;verticalAlign=middle;whiteSpace=wrap;rounded=0;fontSize=20;" vertex="1" parent="1">
          <mxGeometry x="211" y="570" width="380" height="60" as="geometry" />
        </mxCell>
      </root>
    </mxGraphModel>
  </diagram>
</mxfile>
